<svg width="71" height="85" viewBox="0 0 71 85" fill="none" xmlns="http://www.w3.org/2000/svg">
<path d="M8.73809 48.5665L34.6348 24.6179L68.689 57.9779L45.2233 80.7284C40.5913 85.2292 33.003 85.1536 28.2838 80.5668L9.81131 64.5719C5.08093 59.985 5.00424 52.6356 8.73809 48.5665Z" fill="#1C7CFF"/>
<path d="M33.0359 34.4714C35.4014 36.7596 39.2336 36.7596 41.599 34.4714L60.7284 15.9193C63.0828 13.6311 63.0828 9.91858 60.7284 7.61946C58.3635 5.33127 54.5307 5.33127 52.1658 7.61946L33.0359 26.1721C30.671 28.4603 30.671 32.1837 33.0359 34.4714Z" fill="#1C7CFF"/>
<path d="M38.4894 45.7389C40.8543 48.027 44.6871 48.027 47.052 45.7389L55.604 37.4395C57.9695 35.1409 57.9695 31.4279 55.604 29.1402C53.2391 26.852 49.4175 26.852 47.052 29.1402L38.4894 37.4395C36.124 39.7277 36.124 43.4402 38.4894 45.7389Z" fill="#1C7CFF"/>
<path d="M45.5844 55.4306C47.9388 57.7297 51.7715 57.7297 54.1364 55.4306L62.6996 47.1313C65.0534 44.8431 65.0534 41.1306 62.6996 38.8424C60.3341 36.5438 56.5019 36.5438 54.1364 38.8424L45.5844 47.1422C43.2195 49.4299 43.2195 53.1429 45.5844 55.4306ZM51.6398 66.2126C54.0053 68.5007 57.8264 68.5007 60.1918 66.2126L68.7544 57.9132C71.1199 55.6251 71.1199 51.9125 68.7544 49.6134C66.3895 47.3257 62.5568 47.3257 60.1918 49.6134L51.6398 57.9132C49.2749 60.2119 49.2749 63.9244 51.6398 66.2126ZM6.08791 39.7709C5.93503 37.062 5.01519 34.3312 3.55849 32.0002L0.383204 26.9061C-0.240954 25.913 -0.0875634 24.6503 0.733378 23.8516L1.69712 22.9236C4.23764 20.4519 8.78184 21.5853 10.6321 23.3662L12.6141 25.2978C16.6436 29.2048 19.9728 33.6727 21.5385 38.9613L25.4913 48.761L6.09902 56.0781L6.08791 39.7709Z" fill="#1C7CFF"/>
<path d="M47.2929 28.9348L41.5988 34.4715C40.8102 35.2269 40.8102 36.4683 41.5988 37.2346C42.387 38.001 43.6575 38.001 44.4456 37.2346L47.2929 28.9348ZM54.4321 38.6162L48.7274 44.1524C47.9388 44.9078 47.9388 46.1492 48.7274 46.9155C49.5156 47.6819 50.7856 47.6819 51.5742 46.9155L54.4321 38.6162ZM60.1919 49.6031L54.4866 55.1288C53.7096 55.8947 53.6985 57.136 54.4866 57.9024C55.2753 58.6578 56.5564 58.6578 57.345 57.9024L60.1919 49.6031Z" fill="#3763FF"/>
<path d="M24.1989 15.6493C23.0823 15.6493 22.1841 14.764 22.1841 13.6848V1.95348C22.1841 0.874294 23.0823 0 24.1989 0C25.316 0 26.2136 0.874294 26.2136 1.95348V13.6848C26.2136 14.764 25.316 15.6493 24.1989 15.6493ZM34.2838 17.6027C33.7691 17.6027 33.2544 17.4083 32.8604 17.0308C32.0722 16.2645 32.0722 15.0231 32.8604 14.2677L40.9305 6.44332C41.7192 5.67694 42.9892 5.67694 43.7778 6.44332C44.566 7.20969 44.566 8.43957 43.7778 9.20595L35.7077 17.0308C35.3131 17.4083 34.7985 17.6027 34.2838 17.6027ZM14.114 17.6027C13.5993 17.6027 13.0851 17.4083 12.6905 17.0308L4.6204 9.20595C3.83226 8.43957 3.83226 7.20969 4.6204 6.44332C5.40905 5.67694 6.69017 5.67694 7.47831 6.44332L15.5379 14.2677C16.326 15.0231 16.326 16.2645 15.5379 17.0308C15.1544 17.4083 14.6286 17.6027 14.114 17.6027Z" fill="#FFBA00"/>
<path d="M43.7208 62.238C44.9146 62.238 45.7578 62.3678 46.2613 62.6264C46.7543 62.8855 47.0934 63.2958 47.269 63.8354C47.444 64.386 47.5318 65.1091 47.5318 65.9938C47.5318 66.8895 47.4223 67.6126 47.2251 68.1527C47.05 68.6704 46.7432 69.0374 46.3052 69.2319C45.6922 69.577 44.794 69.7496 43.6335 69.7496H26.9018C25.8508 69.7496 24.9421 69.3831 24.1862 68.6271C23.4526 67.8503 23.0913 66.9651 23.0913 65.9505C23.0913 64.4292 23.6277 63.0367 24.712 61.7631C25.7852 60.4681 27.088 59.3675 28.6103 58.439C30.121 57.5219 31.6322 56.6257 33.1212 55.7624C34.6324 54.8776 35.9357 53.8631 37.0196 52.7406C38.0928 51.5968 38.6403 50.3878 38.6403 49.1142C38.6403 48.8551 38.5308 48.499 38.3335 48.035C38.1256 47.5819 37.9066 47.204 37.6765 46.9125C37.4358 46.632 37.0635 46.3515 36.5377 46.0924C36.0124 45.8333 35.2894 45.704 34.3917 45.704C33.483 45.704 32.6944 46.0382 32.0263 46.6967C31.3477 47.3661 30.9753 48.0136 30.8875 48.6392L30.7124 49.6324V49.8915C30.7124 50.4957 30.6796 50.9597 30.6251 51.273C30.5918 51.5968 30.4606 51.9529 30.2305 52.3522C29.7925 53.0211 28.6759 53.3449 26.9018 53.3449C24.8871 53.3449 23.6827 52.8162 23.3103 51.7475C23.1569 51.2944 23.0913 50.5713 23.0913 49.5891C23.0913 46.6534 24.1534 44.042 26.2888 41.7324C28.413 39.401 31.2054 38.2352 34.6546 38.2352C38.0928 38.2352 40.8851 39.4223 43.0205 41.7752C45.1775 44.1066 46.2613 46.7832 46.2613 49.805C46.2613 51.4237 45.889 52.9455 45.1664 54.3813C44.4656 55.8275 43.6113 56.9714 42.6259 57.8347C40.491 59.6803 38.6075 60.9321 36.9757 61.5905L35.8807 62.0222V62.238H43.7208Z" fill="white"/>
</svg>
