<svg width="378" height="467" viewBox="0 0 378 467" fill="none" xmlns="http://www.w3.org/2000/svg">
<circle cx="11.1076" cy="11.1076" r="11.1076" fill="white" fill-opacity="0.05"/>
<circle cx="55.5402" cy="11.1076" r="11.1076" fill="white" fill-opacity="0.05"/>
<circle cx="99.9665" cy="11.1076" r="11.1076" fill="white" fill-opacity="0.05"/>
<circle cx="144.399" cy="11.1076" r="11.1076" fill="white" fill-opacity="0.05"/>
<circle cx="188.831" cy="11.1076" r="11.1076" fill="white" fill-opacity="0.05"/>
<circle cx="233.258" cy="11.1076" r="11.1076" fill="white" fill-opacity="0.05"/>
<circle cx="277.69" cy="11.1076" r="11.1076" fill="white" fill-opacity="0.05"/>
<circle cx="322.123" cy="11.1076" r="11.1076" fill="white" fill-opacity="0.05"/>
<circle cx="366.552" cy="11.1076" r="11.1076" fill="white" fill-opacity="0.05"/>
<circle cx="11.1076" cy="55.5398" r="11.1076" fill="white" fill-opacity="0.05"/>
<circle cx="55.5398" cy="55.5398" r="11.1076" fill="white" fill-opacity="0.05"/>
<circle cx="99.9665" cy="55.5398" r="11.1076" fill="white" fill-opacity="0.05"/>
<circle cx="144.399" cy="55.5398" r="11.1076" fill="white" fill-opacity="0.05"/>
<circle cx="188.831" cy="55.5398" r="11.1076" fill="white" fill-opacity="0.05"/>
<circle cx="233.258" cy="55.5398" r="11.1076" fill="white" fill-opacity="0.05"/>
<circle cx="277.69" cy="55.5398" r="11.1076" fill="white" fill-opacity="0.05"/>
<circle cx="322.123" cy="55.5398" r="11.1076" fill="white" fill-opacity="0.05"/>
<circle cx="366.552" cy="55.5398" r="11.1076" fill="white" fill-opacity="0.05"/>
<circle cx="11.1076" cy="99.9694" r="11.1076" fill="white" fill-opacity="0.05"/>
<circle cx="55.5398" cy="99.9694" r="11.1076" fill="white" fill-opacity="0.05"/>
<circle cx="99.9665" cy="99.9694" r="11.1076" fill="white" fill-opacity="0.05"/>
<circle cx="144.399" cy="99.9694" r="11.1076" fill="white" fill-opacity="0.05"/>
<circle cx="188.831" cy="99.9694" r="11.1076" fill="white" fill-opacity="0.05"/>
<circle cx="233.258" cy="99.9694" r="11.1076" fill="white" fill-opacity="0.05"/>
<circle cx="277.69" cy="99.9694" r="11.1076" fill="white" fill-opacity="0.05"/>
<circle cx="322.123" cy="99.9694" r="11.1076" fill="white" fill-opacity="0.05"/>
<circle cx="366.552" cy="99.9694" r="11.1076" fill="white" fill-opacity="0.05"/>
<circle cx="11.1076" cy="144.399" r="11.1076" fill="white" fill-opacity="0.05"/>
<circle cx="55.5398" cy="144.399" r="11.1076" fill="white" fill-opacity="0.05"/>
<circle cx="99.9665" cy="144.399" r="11.1076" fill="white" fill-opacity="0.05"/>
<circle cx="144.399" cy="144.399" r="11.1076" fill="white" fill-opacity="0.05"/>
<circle cx="188.831" cy="144.399" r="11.1076" fill="white" fill-opacity="0.05"/>
<circle cx="233.258" cy="144.399" r="11.1076" fill="white" fill-opacity="0.05"/>
<circle cx="277.69" cy="144.399" r="11.1076" fill="white" fill-opacity="0.05"/>
<circle cx="322.123" cy="144.399" r="11.1076" fill="white" fill-opacity="0.05"/>
<circle cx="366.552" cy="144.399" r="11.1076" fill="white" fill-opacity="0.05"/>
<circle cx="11.1076" cy="188.831" r="11.1076" fill="white" fill-opacity="0.05"/>
<circle cx="55.5398" cy="188.831" r="11.1076" fill="white" fill-opacity="0.05"/>
<circle cx="99.9665" cy="188.831" r="11.1076" fill="white" fill-opacity="0.05"/>
<circle cx="144.399" cy="188.831" r="11.1076" fill="white" fill-opacity="0.05"/>
<circle cx="188.831" cy="188.831" r="11.1076" fill="white" fill-opacity="0.05"/>
<circle cx="233.258" cy="188.831" r="11.1076" fill="white" fill-opacity="0.05"/>
<circle cx="277.69" cy="188.831" r="11.1076" fill="white" fill-opacity="0.05"/>
<circle cx="322.123" cy="188.831" r="11.1076" fill="white" fill-opacity="0.05"/>
<circle cx="366.552" cy="188.831" r="11.1076" fill="white" fill-opacity="0.05"/>
<circle cx="11.1076" cy="233.261" r="11.1076" fill="white" fill-opacity="0.05"/>
<circle cx="55.5398" cy="233.261" r="11.1076" fill="white" fill-opacity="0.05"/>
<circle cx="99.9665" cy="233.261" r="11.1076" fill="white" fill-opacity="0.05"/>
<circle cx="144.399" cy="233.261" r="11.1076" fill="white" fill-opacity="0.05"/>
<circle cx="188.831" cy="233.261" r="11.1076" fill="white" fill-opacity="0.05"/>
<circle cx="233.258" cy="233.261" r="11.1076" fill="white" fill-opacity="0.05"/>
<circle cx="277.69" cy="233.261" r="11.1076" fill="white" fill-opacity="0.05"/>
<circle cx="322.123" cy="233.261" r="11.1076" fill="white" fill-opacity="0.05"/>
<circle cx="366.552" cy="233.261" r="11.1076" fill="white" fill-opacity="0.05"/>
<circle cx="11.1076" cy="277.693" r="11.1076" fill="white" fill-opacity="0.05"/>
<circle cx="55.5398" cy="277.693" r="11.1076" fill="white" fill-opacity="0.05"/>
<circle cx="99.9665" cy="277.693" r="11.1076" fill="white" fill-opacity="0.05"/>
<circle cx="144.399" cy="277.693" r="11.1076" fill="white" fill-opacity="0.05"/>
<circle cx="188.831" cy="277.693" r="11.1076" fill="white" fill-opacity="0.05"/>
<circle cx="233.258" cy="277.693" r="11.1076" fill="white" fill-opacity="0.05"/>
<circle cx="277.69" cy="277.693" r="11.1076" fill="white" fill-opacity="0.05"/>
<circle cx="322.123" cy="277.693" r="11.1076" fill="white" fill-opacity="0.05"/>
<circle cx="366.552" cy="277.693" r="11.1076" fill="white" fill-opacity="0.05"/>
<circle cx="11.1076" cy="322.123" r="11.1076" fill="white" fill-opacity="0.05"/>
<circle cx="55.5398" cy="322.123" r="11.1076" fill="white" fill-opacity="0.05"/>
<circle cx="99.9665" cy="322.123" r="11.1076" fill="white" fill-opacity="0.05"/>
<circle cx="144.399" cy="322.123" r="11.1076" fill="white" fill-opacity="0.05"/>
<circle cx="188.831" cy="322.123" r="11.1076" fill="white" fill-opacity="0.05"/>
<circle cx="233.258" cy="322.123" r="11.1076" fill="white" fill-opacity="0.05"/>
<circle cx="277.69" cy="322.123" r="11.1076" fill="white" fill-opacity="0.05"/>
<circle cx="322.123" cy="322.123" r="11.1076" fill="white" fill-opacity="0.05"/>
<circle cx="366.552" cy="322.123" r="11.1076" fill="white" fill-opacity="0.05"/>
<circle cx="11.1076" cy="366.552" r="11.1076" fill="white" fill-opacity="0.05"/>
<circle cx="55.5398" cy="366.552" r="11.1076" fill="white" fill-opacity="0.05"/>
<circle cx="99.9665" cy="366.552" r="11.1076" fill="white" fill-opacity="0.05"/>
<circle cx="144.399" cy="366.552" r="11.1076" fill="white" fill-opacity="0.05"/>
<circle cx="188.831" cy="366.552" r="11.1076" fill="white" fill-opacity="0.05"/>
<circle cx="233.258" cy="366.552" r="11.1076" fill="white" fill-opacity="0.05"/>
<circle cx="277.69" cy="366.552" r="11.1076" fill="white" fill-opacity="0.05"/>
<circle cx="322.123" cy="366.552" r="11.1076" fill="white" fill-opacity="0.05"/>
<circle cx="366.552" cy="366.552" r="11.1076" fill="white" fill-opacity="0.05"/>
<circle cx="11.1076" cy="410.984" r="11.1076" fill="white" fill-opacity="0.05"/>
<circle cx="55.5398" cy="410.984" r="11.1076" fill="white" fill-opacity="0.05"/>
<circle cx="99.9665" cy="410.984" r="11.1076" fill="white" fill-opacity="0.05"/>
<circle cx="144.399" cy="410.984" r="11.1076" fill="white" fill-opacity="0.05"/>
<circle cx="188.831" cy="410.984" r="11.1076" fill="white" fill-opacity="0.05"/>
<circle cx="233.258" cy="410.984" r="11.1076" fill="white" fill-opacity="0.05"/>
<circle cx="277.69" cy="410.984" r="11.1076" fill="white" fill-opacity="0.05"/>
<circle cx="322.123" cy="410.984" r="11.1076" fill="white" fill-opacity="0.05"/>
<circle cx="366.552" cy="410.984" r="11.1076" fill="white" fill-opacity="0.05"/>
<circle cx="11.1076" cy="455.414" r="11.1076" fill="white" fill-opacity="0.05"/>
<circle cx="55.5398" cy="455.414" r="11.1076" fill="white" fill-opacity="0.05"/>
<circle cx="99.9665" cy="455.414" r="11.1076" fill="white" fill-opacity="0.05"/>
<circle cx="144.399" cy="455.414" r="11.1076" fill="white" fill-opacity="0.05"/>
<circle cx="188.831" cy="455.414" r="11.1076" fill="white" fill-opacity="0.05"/>
<circle cx="233.258" cy="455.414" r="11.1076" fill="white" fill-opacity="0.05"/>
<circle cx="277.69" cy="455.414" r="11.1076" fill="white" fill-opacity="0.05"/>
<circle cx="322.123" cy="455.414" r="11.1076" fill="white" fill-opacity="0.05"/>
<circle cx="366.552" cy="455.414" r="11.1076" fill="white" fill-opacity="0.05"/>
</svg>
