<svg width="50" height="50" viewBox="0 0 50 50" fill="none" xmlns="http://www.w3.org/2000/svg">
<path d="M19.1406 12.5027L25 -4.95911e-05H40.9829L42.1502 12.5027H19.1406Z" fill="#FFE398"/>
<path d="M7.84912 12.5027L9.01641 -4.95911e-05H24.9993V12.5027H7.84912Z" fill="#FED566"/>
<path d="M25 50L19.1406 27.9297L25 5.85938H34.8576C36.6864 5.85938 38.4381 6.5376 39.79 7.76924C41.142 9.00088 41.9802 10.6819 42.1501 12.5027L45.6509 50H25Z" fill="#FFC730"/>
<path d="M10.2096 7.76924C11.5615 6.5376 13.3132 5.85938 15.142 5.85938H24.9996V50H4.34863L7.84941 12.5027C8.01943 10.6818 8.85762 9.00078 10.2096 7.76924Z" fill="#FFBA00"/>
</svg>
