<svg width="288" height="55" viewBox="0 0 288 55" fill="none" xmlns="http://www.w3.org/2000/svg">
<path d="M25.5629 27.727C25.5629 29.7024 25.0653 31.1667 24.0772 32.1196C23.0821 33.0591 21.9819 33.5289 20.7698 33.5289H9.19356C9.19356 34.4127 9.72634 35.1723 10.7913 35.7942C11.8704 36.4018 12.9495 36.7057 14.0148 36.7057C15.9208 36.7057 17.4062 36.5125 18.4714 36.1255L19.0039 35.9323C19.7888 35.587 20.4404 35.4072 20.9661 35.4072C22.01 35.4072 22.907 36.1255 23.6568 37.5621C24.0843 38.4326 24.3013 39.1646 24.3013 39.7724C24.3013 42.6454 20.826 44.082 13.8746 44.082C11.4639 44.082 9.31271 43.6746 7.42763 42.8666C5.55676 42.0378 4.1063 40.9465 3.08335 39.5789C1.02294 36.982 0 34.0814 0 30.8765C0 26.8292 1.32453 23.5833 3.98004 21.1521C6.6291 18.7209 9.95043 17.5052 13.9305 17.5052C18.4714 17.5052 21.7927 19.0799 23.909 22.2294C25.0091 23.9079 25.5629 25.7379 25.5629 27.727ZM15.2479 29.1359C16.4814 29.1359 17.0978 28.6251 17.0978 27.5889C17.0978 26.8569 16.8036 26.263 16.2289 25.821C15.6683 25.3652 14.8556 25.1303 13.7903 25.1303C12.7393 25.1303 11.6954 25.5584 10.6511 26.4011C9.60009 27.2506 9.08151 28.1624 9.08151 29.1359H15.2479Z" fill="white"/>
<path d="M45.4941 20.7376C45.6762 18.935 46.9584 18.0302 49.334 18.0302C50.6023 18.0302 51.5484 18.1336 52.1648 18.3338C52.7954 18.5203 53.2372 18.859 53.4823 19.3561C53.7206 19.8395 53.8607 20.2609 53.9027 20.6269C53.9589 20.9999 53.9869 21.5524 53.9869 22.2847V39.1645C53.9869 39.9035 53.9589 40.456 53.9027 40.822C53.8607 41.195 53.7344 41.6163 53.5103 42.0928C53.0408 42.9425 51.9197 43.3636 50.1467 43.3636C48.3669 43.3636 47.1828 43.1427 46.5871 42.7006C45.9846 42.2586 45.6342 41.6233 45.5218 40.7943C44.3236 42.5071 42.3126 43.3636 39.4956 43.3636C36.6718 43.3636 34.058 42.0928 31.6476 39.5512C29.2368 37.0095 28.0317 34.0672 28.0317 30.7106C28.0317 27.3402 29.2439 24.3979 31.6753 21.8703C34.1 19.3494 36.7629 18.0853 39.6638 18.0853C40.7639 18.0853 41.773 18.2788 42.691 18.6655C43.6019 19.0521 44.2396 19.4251 44.5971 19.7704C44.9474 20.1021 45.2487 20.4267 45.4941 20.7376ZM36.5805 30.766C36.5805 31.8366 37.0012 32.7964 37.842 33.6392C38.6967 34.4886 39.7268 34.91 40.9251 34.91C42.1375 34.91 43.1395 34.4816 43.9241 33.6115C44.723 32.7481 45.1295 31.7882 45.1295 30.7383C45.1295 29.6886 44.7443 28.7215 43.9803 27.8377C43.2096 26.9395 42.1866 26.4838 40.897 26.4838C39.6218 26.4838 38.5847 26.9395 37.7858 27.8377C36.9799 28.7215 36.5805 29.7023 36.5805 30.766Z" fill="white"/>
<path d="M58.1136 41.1814C57.4968 40.7943 57.1885 40.1868 57.1885 39.3581C57.1885 38.5153 57.8052 37.2445 59.0384 35.5453C59.3887 34.9928 59.9702 34.7166 60.7762 34.7166C61.575 34.7166 62.6613 35.1173 64.0278 35.9046C65.3872 36.6987 66.6342 37.0924 67.7556 37.0924C69.7318 37.0924 70.7266 36.7057 70.7266 35.9323C70.7266 35.3244 69.6336 34.8754 67.4473 34.5785C65.3872 34.2885 63.3549 33.5288 61.3368 32.3131C60.3839 31.7259 59.5989 30.8144 58.9825 29.578C58.3658 28.3489 58.0574 26.8846 58.0574 25.1854C58.0574 20.1022 61.596 17.5605 68.6804 17.5605C70.993 17.5605 73.3686 18.106 75.8 19.1903C76.9563 19.7085 77.5378 20.3507 77.5378 21.1244C77.5378 21.8978 77.1733 22.851 76.4445 23.9699C75.7299 25.0956 75.0012 25.6551 74.2585 25.6551C73.8658 25.6551 73.1371 25.4203 72.0721 24.9368C71.0069 24.4604 69.8577 24.2185 68.6246 24.2185C66.6975 24.2185 65.7375 24.5708 65.7375 25.2684C65.7375 26.2283 66.8447 26.8569 69.0731 27.1468C71.2171 27.368 73.3053 27.9895 75.3234 28.9978C76.2766 29.4399 77.0683 30.2135 77.7061 31.3185C78.3367 32.4235 78.6589 33.8188 78.6589 35.4903C78.6589 37.1684 78.3367 38.5981 77.7061 39.7724C77.0683 40.9325 76.1784 41.8099 75.0431 42.3968C72.9478 43.3913 70.3201 43.8888 67.167 43.8888C64.0278 43.8888 61.0074 42.9906 58.1136 41.1814Z" fill="white"/>
<path d="M105.805 18.3339C107.725 19.163 108.692 20.1782 108.692 21.373C108.692 21.9462 108.559 22.492 108.299 23.0031C108.033 23.5209 107.907 23.7972 107.907 23.8318L95.0975 52.0661C94.8314 52.6877 94.607 53.1574 94.4249 53.4751C94.2566 53.786 93.9764 54.0899 93.5841 54.3869C93.1914 54.6768 92.6941 54.8289 92.0984 54.8289C91.5169 54.8289 90.6547 54.587 89.5197 54.1106C87.5927 53.2609 86.6327 52.2596 86.6327 51.0993C86.6327 50.3396 88.1884 46.6653 91.3134 40.0761L81.5874 23.9146C80.9287 22.865 80.6064 22.0843 80.6064 21.5665C80.6064 20.5372 81.4821 19.5083 83.241 18.4724C84.3624 17.8298 85.2313 17.5052 85.8477 17.5052C86.4645 17.5052 86.9691 17.6366 87.3615 17.8922C87.7538 18.1544 88.0341 18.417 88.2023 18.6932C88.3844 18.9695 89.2814 20.4752 90.893 23.1963C92.5188 25.9037 94.0603 28.4316 95.5179 30.7661C95.6861 30.2549 96.5621 28.2728 98.1527 24.8264C99.7575 21.366 100.619 19.522 100.731 19.3011C100.843 19.0799 101.026 18.8037 101.292 18.4724C101.719 17.9196 102.315 17.6433 103.086 17.6433C103.85 17.6433 104.754 17.8782 105.805 18.3339Z" fill="white"/>
<path d="M172.719 18.3339C173.35 18.5204 173.869 18.852 174.261 19.3284C174.667 19.7912 174.878 20.5372 174.878 21.5664C174.878 22.6024 174.569 23.7214 173.953 24.9368C173.336 26.1522 172.439 26.7601 171.262 26.7601C170.68 26.7601 170.119 26.636 169.58 26.3734C169.034 26.1178 168.326 25.9867 167.45 25.9867C166.567 25.9867 165.747 26.3043 164.983 26.9259C164.212 27.5338 163.834 28.2728 163.834 29.1359V39.2473C163.834 39.9863 163.806 40.5388 163.75 40.9051C163.708 41.2781 163.561 41.7061 163.301 42.2033C162.811 43.0323 161.543 43.4467 159.489 43.4467C157.92 43.4467 156.785 43.1704 156.098 42.6179C155.572 42.1759 155.285 41.4853 155.229 40.5458V22.2294C155.229 21.4974 155.243 20.9449 155.285 20.5719C155.341 20.2059 155.481 19.7982 155.706 19.3561C156.168 18.4723 157.443 18.0303 159.517 18.0303C161.479 18.0303 162.699 18.41 163.189 19.163C163.54 19.6601 163.722 20.1849 163.722 20.7377C163.89 20.5165 164.121 20.2539 164.423 19.9363C164.738 19.605 165.404 19.1766 166.413 18.6378C167.422 18.0853 168.305 17.8091 169.076 17.8091C169.86 17.8091 170.505 17.8505 171.009 17.9195C171.528 17.9956 172.103 18.1337 172.719 18.3339Z" fill="white"/>
<path d="M202.42 27.727C202.42 29.7024 201.922 31.1667 200.934 32.1196C199.939 33.0591 198.839 33.5289 197.627 33.5289H186.05C186.05 34.4127 186.583 35.1723 187.648 35.7942C188.727 36.4018 189.806 36.7057 190.872 36.7057C192.778 36.7057 194.263 36.5125 195.328 36.1255L195.861 35.9323C196.646 35.587 197.297 35.4072 197.823 35.4072C198.867 35.4072 199.764 36.1255 200.514 37.5621C200.941 38.4326 201.158 39.1646 201.158 39.7724C201.158 42.6454 197.683 44.082 190.732 44.082C188.321 44.082 186.17 43.6746 184.285 42.8666C182.414 42.0378 180.963 40.9465 179.94 39.5789C177.88 36.982 176.857 34.0814 176.857 30.8765C176.857 26.8292 178.181 23.5833 180.837 21.1521C183.486 18.7209 186.807 17.5052 190.787 17.5052C195.328 17.5052 198.65 19.0799 200.766 22.2294C201.866 23.9079 202.42 25.7379 202.42 27.727ZM192.105 29.1359C193.338 29.1359 193.955 28.6251 193.955 27.5889C193.955 26.8569 193.661 26.263 193.086 25.821C192.525 25.3652 191.713 25.1303 190.647 25.1303C189.596 25.1303 188.552 25.5584 187.508 26.4011C186.457 27.2506 185.938 28.1624 185.938 29.1359H192.105Z" fill="white"/>
<path d="M220.585 26.5669L217.39 26.3734V33.0314C217.39 33.9015 217.53 34.5234 217.81 34.9101C218.091 35.2968 218.609 35.4903 219.38 35.4903C220.144 35.4903 220.733 35.5179 221.146 35.573C221.552 35.6144 221.987 35.7595 222.435 36.0151C223.178 36.4434 223.556 37.5207 223.556 39.2473C223.556 41.2781 223.094 42.5212 222.183 42.977C221.693 43.1978 221.265 43.3363 220.894 43.3913C220.515 43.4327 219.976 43.4467 219.268 43.4467C215.862 43.4467 213.284 42.6937 211.532 41.1813C209.773 39.6757 208.897 37.1201 208.897 33.5288V26.3734C208.28 26.4839 207.608 26.5392 206.879 26.5392C206.164 26.5392 205.569 26.263 205.085 25.7105C204.615 25.1577 204.384 24.2322 204.384 22.92C204.384 21.5941 204.469 20.641 204.636 20.0468C204.805 19.4599 205.029 19.0385 205.309 18.776C205.828 18.3549 206.487 18.1407 207.271 18.1407L208.897 18.3339V13.3611C208.897 12.6291 208.911 12.0836 208.953 11.7313C209.009 11.386 209.163 10.9993 209.43 10.571C209.857 9.7629 211.112 9.35553 213.186 9.35553C215.407 9.35553 216.731 9.9564 217.166 11.1511C217.313 11.6693 217.39 12.491 217.39 13.61V18.3339C218.827 18.2098 219.912 18.1407 220.641 18.1407C221.384 18.1407 221.945 18.1684 222.323 18.2235C222.695 18.2648 223.122 18.41 223.613 18.6655C224.453 19.0939 224.874 20.323 224.874 22.3675C224.874 24.398 224.432 25.6414 223.556 26.0972C223.066 26.3181 222.638 26.4562 222.267 26.5116C221.889 26.5529 221.328 26.5669 220.585 26.5669Z" fill="white"/>
<path d="M227.583 22.2847C227.583 21.5524 227.597 20.9999 227.639 20.6269C227.695 20.2609 227.835 19.8395 228.059 19.3561C228.522 18.5137 229.797 18.0853 231.871 18.0853C233.441 18.0853 234.548 18.3615 235.207 18.914C235.767 19.3561 236.055 20.0467 236.076 20.9862C236.111 21.3038 236.132 21.7596 236.132 22.3674V39.2472C236.132 39.9862 236.104 40.5387 236.048 40.905C236.006 41.278 235.859 41.7061 235.599 42.2032C235.165 43.0323 233.918 43.4466 231.843 43.4466C229.783 43.4466 228.522 43.0183 228.059 42.1482C227.835 41.6714 227.695 41.257 227.639 40.905C227.597 40.5387 227.583 39.9655 227.583 39.1922V22.2847ZM235.627 13.3611C235.382 13.8238 234.941 14.1484 234.31 14.3282C233.693 14.5147 232.866 14.6045 231.843 14.6045C230.834 14.6045 230.007 14.5147 229.377 14.3282C228.76 14.1484 228.326 13.8171 228.087 13.3337C227.842 12.8362 227.695 12.4082 227.639 12.0352C227.597 11.6692 227.583 11.1167 227.583 10.3774C227.583 9.64539 227.597 9.09289 227.639 8.71989C227.695 8.3539 227.835 7.93952 228.059 7.47678C228.522 6.61334 229.797 6.17828 231.871 6.17828C233.924 6.17828 235.165 6.61334 235.599 7.47678C235.859 7.96021 236.006 8.38827 236.048 8.77527C236.104 9.14827 236.132 9.70077 236.132 10.4328C236.132 11.1718 236.104 11.7243 236.048 12.0902C236.006 12.4632 235.866 12.8846 235.627 13.3611Z" fill="white"/>
<path d="M257.548 18.3339C258.179 18.5204 258.697 18.852 259.09 19.3284C259.496 19.7912 259.706 20.5372 259.706 21.5664C259.706 22.6024 259.398 23.7214 258.782 24.9368C258.165 26.1522 257.268 26.7601 256.091 26.7601C255.509 26.7601 254.949 26.636 254.409 26.3734C253.862 26.1178 253.155 25.9867 252.279 25.9867C251.396 25.9867 250.576 26.3043 249.812 26.9259C249.041 27.5338 248.663 28.2728 248.663 29.1359V39.2473C248.663 39.9863 248.635 40.5388 248.579 40.9051C248.537 41.2781 248.39 41.7061 248.131 42.2033C247.64 43.0323 246.371 43.4467 244.318 43.4467C242.749 43.4467 241.613 43.1704 240.927 42.6179C240.401 42.1759 240.114 41.4853 240.058 40.5458V22.2294C240.058 21.4974 240.072 20.9449 240.114 20.5719C240.17 20.2059 240.31 19.7982 240.534 19.3561C240.997 18.4723 242.272 18.0303 244.347 18.0303C246.308 18.0303 247.528 18.41 248.018 19.163C248.369 19.6601 248.551 20.1849 248.551 20.7377C248.719 20.5165 248.95 20.2539 249.252 19.9363C249.567 19.605 250.233 19.1766 251.242 18.6378C252.251 18.0853 253.134 17.8091 253.904 17.8091C254.689 17.8091 255.334 17.8505 255.838 17.9195C256.357 17.9956 256.931 18.1337 257.548 18.3339Z" fill="white"/>
<path d="M287.249 27.727C287.249 29.7024 286.751 31.1667 285.763 32.1196C284.768 33.0591 283.668 33.5289 282.456 33.5289H270.88C270.88 34.4127 271.412 35.1723 272.477 35.7942C273.556 36.4018 274.636 36.7057 275.7 36.7057C277.607 36.7057 279.092 36.5125 280.157 36.1255L280.69 35.9323C281.475 35.587 282.126 35.4072 282.652 35.4072C283.696 35.4072 284.593 36.1255 285.343 37.5621C285.77 38.4326 285.987 39.1646 285.987 39.7724C285.987 42.6454 282.512 44.082 275.56 44.082C273.15 44.082 270.999 43.6746 269.114 42.8666C267.243 42.0378 265.792 40.9465 264.769 39.5789C262.709 36.982 261.686 34.0814 261.686 30.8765C261.686 26.8292 263.01 23.5833 265.666 21.1521C268.315 18.7209 271.636 17.5052 275.616 17.5052C280.157 17.5052 283.479 19.0799 285.595 22.2294C286.695 23.9079 287.249 25.7379 287.249 27.727ZM276.934 29.1359C278.167 29.1359 278.784 28.6251 278.784 27.5889C278.784 26.8569 278.49 26.263 277.915 25.821C277.354 25.3652 276.542 25.1303 275.476 25.1303C274.425 25.1303 273.381 25.5584 272.337 26.4011C271.286 27.2506 270.768 28.1624 270.768 29.1359H276.934Z" fill="white"/>
<path d="M113.816 31.0798L130.389 15.7541L152.182 37.1025L137.165 51.6616C134.201 54.5418 129.345 54.4934 126.324 51.5581L114.503 41.3223C111.476 38.387 111.427 33.6838 113.816 31.0798Z" fill="#1C7CFF"/>
<path d="M129.366 22.0598C130.879 23.5241 133.332 23.5241 134.845 22.0598L147.087 10.1875C148.594 8.72323 148.594 6.34743 147.087 4.87612C145.574 3.41182 143.121 3.41182 141.608 4.87612L129.366 16.7487C127.852 18.213 127.852 20.5958 129.366 22.0598Z" fill="#1C7CFF"/>
<path d="M132.856 29.2702C134.369 30.7345 136.822 30.7345 138.335 29.2702L143.808 23.9591C145.322 22.4881 145.322 20.112 143.808 18.648C142.294 17.1837 139.849 17.1837 138.335 18.648L132.856 23.9591C131.342 25.4234 131.342 27.7992 132.856 29.2702Z" fill="#1C7CFF"/>
<path d="M137.396 35.4725C138.903 36.9438 141.355 36.9438 142.869 35.4725L148.349 30.1614C149.855 28.6971 149.855 26.3213 148.349 24.857C146.835 23.386 144.383 23.386 142.869 24.857L137.396 30.1684C135.883 31.6324 135.883 34.0085 137.396 35.4725ZM141.271 42.3723C142.785 43.8366 145.23 43.8366 146.744 42.3723L152.224 37.0612C153.737 35.5969 153.737 33.2211 152.224 31.7498C150.71 30.2858 148.257 30.2858 146.744 31.7498L141.271 37.0612C139.758 38.5322 139.758 40.908 141.271 42.3723ZM112.121 25.4512C112.023 23.7176 111.434 21.97 110.502 20.4784L108.47 17.2184C108.07 16.5829 108.169 15.7748 108.694 15.2637L109.311 14.6698C110.936 13.0881 113.844 13.8134 115.029 14.9531L116.297 16.1892C118.876 18.6894 121.006 21.5487 122.008 24.933L124.538 31.2043L112.128 35.8868L112.121 25.4512Z" fill="#1C7CFF"/>
<path d="M138.489 18.5166L134.845 22.0598C134.341 22.5432 134.341 23.3376 134.845 23.828C135.35 24.3184 136.163 24.3184 136.667 23.828L138.489 18.5166ZM143.058 24.7121L139.407 28.255C138.903 28.7384 138.903 29.5328 139.407 30.0232C139.912 30.5137 140.724 30.5137 141.229 30.0232L143.058 24.7121ZM146.744 31.7431L143.093 35.2793C142.596 35.7694 142.588 36.5638 143.093 37.0542C143.597 37.5376 144.417 37.5376 144.922 37.0542L146.744 31.7431Z" fill="#3763FF"/>
<path d="M123.711 10.0146C122.996 10.0146 122.421 9.44813 122.421 8.75751V1.25012C122.421 0.559498 122.996 0 123.711 0C124.425 0 125 0.559498 125 1.25012V8.75751C125 9.44813 124.425 10.0146 123.711 10.0146ZM130.164 11.2648C129.835 11.2648 129.506 11.1403 129.253 10.8988C128.749 10.4083 128.749 9.61394 129.253 9.13051L134.418 4.12335C134.923 3.63292 135.735 3.63292 136.24 4.12335C136.744 4.61379 136.744 5.40084 136.24 5.89128L131.076 10.8988C130.823 11.1403 130.494 11.2648 130.164 11.2648ZM117.257 11.2648C116.927 11.2648 116.598 11.1403 116.346 10.8988L111.181 5.89128C110.677 5.40084 110.677 4.61379 111.181 4.12335C111.686 3.63292 112.506 3.63292 113.01 4.12335L118.168 9.13051C118.672 9.61394 118.672 10.4083 118.168 10.8988C117.923 11.1403 117.586 11.2648 117.257 11.2648Z" fill="#FFBA00"/>
<path d="M136.204 39.8287C136.968 39.8287 137.507 39.9118 137.829 40.0773C138.145 40.2431 138.362 40.5057 138.474 40.851C138.586 41.2033 138.642 41.666 138.642 42.2322C138.642 42.8054 138.572 43.2682 138.446 43.6138C138.334 43.9451 138.138 44.18 137.858 44.3044C137.465 44.5253 136.89 44.6357 136.148 44.6357H125.44C124.768 44.6357 124.186 44.4011 123.703 43.9174C123.233 43.4203 123.002 42.8538 123.002 42.2045C123.002 41.231 123.345 40.3399 124.039 39.5248C124.726 38.6961 125.56 37.9917 126.534 37.3976C127.501 36.8107 128.468 36.2372 129.421 35.6847C130.388 35.1185 131.222 34.4693 131.915 33.751C132.602 33.019 132.952 32.2453 132.952 31.4302C132.952 31.2644 132.882 31.0365 132.756 30.7396C132.623 30.4497 132.483 30.2078 132.336 30.0213C132.182 29.8418 131.943 29.6623 131.607 29.4965C131.271 29.3307 130.808 29.2479 130.234 29.2479C129.652 29.2479 129.147 29.4618 128.72 29.8832C128.286 30.3115 128.047 30.7259 127.991 31.1263L127.879 31.7618V31.9277C127.879 32.3143 127.858 32.6113 127.823 32.8118C127.802 33.019 127.718 33.2468 127.571 33.5024C127.29 33.9305 126.576 34.1376 125.44 34.1376C124.151 34.1376 123.38 33.7993 123.142 33.1154C123.044 32.8255 123.002 32.3627 123.002 31.7342C123.002 29.8555 123.682 28.1843 125.048 26.7063C126.408 25.2143 128.194 24.4683 130.402 24.4683C132.602 24.4683 134.389 25.228 135.755 26.7337C137.136 28.2257 137.829 29.9385 137.829 31.8723C137.829 32.9082 137.591 33.8821 137.129 34.8009C136.68 35.7264 136.134 36.4584 135.503 37.0109C134.137 38.1919 132.931 38.993 131.887 39.4144L131.186 39.6906V39.8287H136.204Z" fill="white"/>
</svg>
