<svg width="214" height="41" viewBox="0 0 214 41" fill="none" xmlns="http://www.w3.org/2000/svg">
<g clip-path="url(#clip0_143_919)">
<path d="M19.0357 20.6469C19.0357 22.118 18.6651 23.2084 17.9294 23.9179C17.1883 24.6175 16.3691 24.9673 15.4664 24.9673H6.84608C6.84608 25.6255 7.24282 26.1912 8.03582 26.6543C8.8394 27.1067 9.64299 27.333 10.4362 27.333C11.8556 27.333 12.9617 27.1892 13.7549 26.901L14.1514 26.7571C14.7359 26.5 15.2212 26.3661 15.6126 26.3661C16.39 26.3661 17.058 26.901 17.6163 27.9708C17.9346 28.6189 18.0962 29.164 18.0962 29.6167C18.0962 31.756 15.5083 32.8258 10.3319 32.8258C8.53668 32.8258 6.9348 32.5225 5.53106 31.9208C4.13789 31.3036 3.0578 30.491 2.29605 29.4726C0.761744 27.5387 0 25.3788 0 22.9922C0 19.9784 0.986324 17.5613 2.96378 15.7509C4.93643 13.9405 7.40969 13.0352 10.3735 13.0352C13.7549 13.0352 16.2282 14.2078 17.8041 16.5531C18.6233 17.803 19.0357 19.1657 19.0357 20.6469ZM11.3545 21.6961C12.273 21.6961 12.732 21.3157 12.732 20.5441C12.732 19.999 12.513 19.5568 12.085 19.2276C11.6676 18.8882 11.0624 18.7133 10.2691 18.7133C9.48645 18.7133 8.70908 19.0321 7.93147 19.6596C7.1488 20.2922 6.76264 20.9711 6.76264 21.6961H11.3545Z" fill="black"/>
<path d="M33.8775 15.4424C34.0131 14.1 34.968 13.4263 36.737 13.4263C37.6814 13.4263 38.386 13.5033 38.845 13.6524C39.3146 13.7912 39.6435 14.0434 39.826 14.4136C40.0035 14.7736 40.1078 15.0874 40.1391 15.3599C40.1809 15.6377 40.2018 16.0491 40.2018 16.5944V29.1641C40.2018 29.7144 40.1809 30.1258 40.1391 30.3984C40.1078 30.6761 40.0138 30.9899 39.8469 31.3447C39.4973 31.9775 38.6625 32.291 37.3422 32.291C36.0168 32.291 35.1351 32.1265 34.6914 31.7973C34.2428 31.4682 33.9819 30.9951 33.8982 30.3778C33.0059 31.6533 31.5084 32.291 29.4107 32.291C27.308 32.291 25.3615 31.3447 23.5666 29.4521C21.7714 27.5594 20.874 25.3684 20.874 22.8688C20.874 20.3591 21.7767 18.168 23.5873 16.2858C25.3928 14.4086 27.3758 13.4673 29.536 13.4673C30.3552 13.4673 31.1066 13.6114 31.7902 13.8993C32.4685 14.1873 32.9434 14.465 33.2096 14.7222C33.4704 14.9691 33.6948 15.2108 33.8775 15.4424ZM27.2399 22.9101C27.2399 23.7073 27.5532 24.4221 28.1794 25.0497C28.8158 25.6822 29.5829 25.996 30.4752 25.996C31.3781 25.996 32.1242 25.677 32.7085 25.029C33.3033 24.3861 33.6061 23.6713 33.6061 22.8894C33.6061 22.1078 33.3192 21.3876 32.7503 20.7295C32.1763 20.0607 31.4146 19.7213 30.4542 19.7213C29.5047 19.7213 28.7324 20.0607 28.1375 20.7295C27.5374 21.3876 27.2399 22.118 27.2399 22.9101Z" fill="black"/>
<path d="M43.2748 30.6661C42.8156 30.3779 42.5859 29.9255 42.5859 29.3084C42.5859 28.6808 43.0452 27.7345 43.9635 26.4692C44.2244 26.0578 44.6574 25.8521 45.2576 25.8521C45.8524 25.8521 46.6613 26.1504 47.6789 26.7368C48.6912 27.3281 49.6198 27.6212 50.4549 27.6212C51.9264 27.6212 52.6673 27.3333 52.6673 26.7574C52.6673 26.3047 51.8533 25.9703 50.2253 25.7492C48.6912 25.5333 47.1778 24.9676 45.675 24.0623C44.9654 23.625 44.3809 22.9463 43.9219 22.0256C43.4626 21.1103 43.233 20.0199 43.233 18.7546C43.233 14.9693 45.8681 13.0767 51.1435 13.0767C52.8656 13.0767 54.6346 13.4829 56.4452 14.2903C57.3062 14.6761 57.7393 15.1544 57.7393 15.7305C57.7393 16.3064 57.4678 17.0162 56.9251 17.8495C56.393 18.6877 55.8503 19.1044 55.2973 19.1044C55.0049 19.1044 54.4622 18.9295 53.6692 18.5695C52.876 18.2147 52.0202 18.0346 51.1019 18.0346C49.6669 18.0346 48.9521 18.2969 48.9521 18.8164C48.9521 19.5312 49.7766 19.9993 51.4359 20.2152C53.0325 20.3799 54.5875 20.8427 56.0903 21.5935C56.8001 21.9227 57.3897 22.4988 57.8646 23.3217C58.3342 24.1445 58.5741 25.1835 58.5741 26.4282C58.5741 27.6779 58.3342 28.7425 57.8646 29.617C57.3897 30.4808 56.727 31.1342 55.8816 31.5712C54.3213 32.3118 52.3645 32.6822 50.0165 32.6822C47.6789 32.6822 45.4297 32.0134 43.2748 30.6661Z" fill="black"/>
<path d="M78.7886 13.6523C80.2183 14.2697 80.9385 15.0257 80.9385 15.9153C80.9385 16.3422 80.8394 16.7486 80.6463 17.1292C80.448 17.5148 80.3539 17.7205 80.3539 17.7464L70.8153 38.7713C70.6172 39.2342 70.4501 39.584 70.3144 39.8205C70.1892 40.052 69.9805 40.2784 69.6883 40.4995C69.3959 40.7154 69.0256 40.8287 68.582 40.8287C68.149 40.8287 67.507 40.6485 66.6618 40.2938C65.2268 39.661 64.5119 38.9154 64.5119 38.0513C64.5119 37.4856 65.6704 34.7495 67.9975 29.8428L60.7549 17.808C60.2644 17.0264 60.0244 16.445 60.0244 16.0594C60.0244 15.293 60.6765 14.5268 61.9862 13.7554C62.8213 13.2769 63.4684 13.0352 63.9274 13.0352C64.3866 13.0352 64.7625 13.133 65.0546 13.3233C65.3468 13.5186 65.5555 13.7141 65.6807 13.9199C65.8164 14.1256 66.4843 15.2468 67.6844 17.2731C68.8951 19.2892 70.043 21.1716 71.1284 22.91C71.2536 22.5294 71.906 21.0534 73.0904 18.487C74.2855 15.9101 74.9272 14.537 75.0107 14.3725C75.0941 14.2078 75.23 14.0021 75.4281 13.7554C75.7464 13.3437 76.1901 13.138 76.764 13.138C77.3327 13.138 78.0059 13.3129 78.7886 13.6523Z" fill="black"/>
<path d="M128.617 13.6525C129.087 13.7914 129.473 14.0383 129.765 14.3931C130.068 14.7377 130.224 15.2932 130.224 16.0597C130.224 16.8311 129.995 17.6644 129.535 18.5694C129.076 19.4745 128.408 19.9272 127.532 19.9272C127.099 19.9272 126.681 19.8348 126.279 19.6392C125.872 19.4489 125.345 19.3513 124.693 19.3513C124.036 19.3513 123.425 19.5878 122.856 20.0507C122.282 20.5033 122.001 21.0536 122.001 21.6963V29.2259C122.001 29.7762 121.98 30.1876 121.938 30.4604C121.907 30.7381 121.797 31.0569 121.604 31.4271C121.239 32.0445 120.294 32.353 118.765 32.353C117.596 32.353 116.751 32.1473 116.24 31.7359C115.848 31.4067 115.634 30.8924 115.593 30.1928V16.5533C115.593 16.0082 115.603 15.5968 115.634 15.3191C115.676 15.0465 115.781 14.7429 115.948 14.4137C116.292 13.7556 117.242 13.4264 118.786 13.4264C120.247 13.4264 121.155 13.7092 121.521 14.2699C121.781 14.6401 121.917 15.0309 121.917 15.4425C122.042 15.2778 122.215 15.0823 122.439 14.8458C122.674 14.5991 123.169 14.2801 123.921 13.8789C124.672 13.4674 125.33 13.2617 125.904 13.2617C126.488 13.2617 126.968 13.2925 127.344 13.344C127.73 13.4006 128.158 13.5035 128.617 13.6525Z" fill="black"/>
<path d="M150.734 20.6469C150.734 22.118 150.363 23.2084 149.628 23.9179C148.887 24.6175 148.067 24.9673 147.165 24.9673H138.544C138.544 25.6255 138.941 26.1912 139.734 26.6543C140.538 27.1067 141.341 27.333 142.134 27.333C143.554 27.333 144.66 27.1892 145.453 26.901L145.85 26.7571C146.434 26.5 146.919 26.3661 147.311 26.3661C148.088 26.3661 148.756 26.901 149.315 27.9708C149.633 28.6189 149.794 29.164 149.794 29.6167C149.794 31.756 147.206 32.8258 142.03 32.8258C140.235 32.8258 138.633 32.5225 137.229 31.9208C135.836 31.3036 134.756 30.491 133.994 29.4726C132.46 27.5387 131.698 25.3788 131.698 22.9922C131.698 19.9784 132.685 17.5613 134.662 15.7509C136.634 13.9405 139.108 13.0352 142.072 13.0352C145.453 13.0352 147.926 14.2078 149.502 16.5531C150.322 17.803 150.734 19.1657 150.734 20.6469ZM143.053 21.6961C143.971 21.6961 144.43 21.3157 144.43 20.5441C144.43 19.999 144.211 19.5568 143.783 19.2276C143.366 18.8882 142.761 18.7133 141.967 18.7133C141.185 18.7133 140.407 19.0321 139.63 19.6596C138.847 20.2922 138.461 20.9711 138.461 21.6961H143.053Z" fill="black"/>
<path d="M164.261 19.7834L161.882 19.6393V24.5973C161.882 25.2452 161.986 25.7083 162.195 25.9962C162.403 26.2842 162.79 26.4283 163.363 26.4283C163.932 26.4283 164.371 26.4489 164.679 26.4899C164.981 26.5207 165.305 26.6288 165.639 26.8191C166.192 27.1381 166.473 27.9403 166.473 29.226C166.473 30.7383 166.129 31.664 165.451 32.0033C165.086 32.1678 164.767 32.2709 164.491 32.3119C164.209 32.3427 163.807 32.3531 163.28 32.3531C160.744 32.3531 158.824 31.7924 157.519 30.6662C156.21 29.545 155.557 27.6419 155.557 24.9677V19.6393C155.098 19.7216 154.597 19.7628 154.054 19.7628C153.522 19.7628 153.079 19.5571 152.719 19.1457C152.369 18.734 152.197 18.0449 152.197 17.0677C152.197 16.0804 152.26 15.3706 152.385 14.9281C152.51 14.4911 152.677 14.1773 152.886 13.9818C153.272 13.6683 153.762 13.5088 154.347 13.5088L155.557 13.6526V9.94961C155.557 9.40452 155.568 8.99831 155.599 8.73596C155.641 8.47882 155.756 8.19087 155.954 7.87188C156.272 7.27015 157.206 6.9668 158.751 6.9668C160.405 6.9668 161.391 7.41424 161.715 8.30392C161.824 8.68974 161.882 9.30166 161.882 10.1349V13.6526C162.951 13.5602 163.76 13.5088 164.303 13.5088C164.856 13.5088 165.273 13.5294 165.555 13.5704C165.832 13.6012 166.15 13.7093 166.515 13.8996C167.141 14.2186 167.454 15.1339 167.454 16.6563C167.454 18.1683 167.126 19.0943 166.473 19.4336C166.108 19.5981 165.79 19.701 165.513 19.7422C165.232 19.773 164.814 19.7834 164.261 19.7834Z" fill="black"/>
<path d="M169.472 16.5944C169.472 16.0491 169.483 15.6376 169.514 15.3599C169.556 15.0873 169.66 14.7736 169.827 14.4136C170.171 13.7862 171.121 13.4673 172.666 13.4673C173.834 13.4673 174.659 13.673 175.149 14.0844C175.567 14.4136 175.781 14.9278 175.796 15.6275C175.822 15.864 175.838 16.2033 175.838 16.656V29.2257C175.838 29.776 175.817 30.1874 175.776 30.4602C175.744 30.738 175.635 31.0567 175.442 31.4269C175.118 32.0443 174.189 32.3528 172.645 32.3528C171.111 32.3528 170.171 32.0339 169.827 31.3859C169.66 31.0309 169.556 30.7223 169.514 30.4602C169.483 30.1874 169.472 29.7606 169.472 29.1847V16.5944ZM175.462 9.94931C175.28 10.2939 174.951 10.5356 174.481 10.6695C174.022 10.8084 173.406 10.8752 172.645 10.8752C171.893 10.8752 171.277 10.8084 170.808 10.6695C170.349 10.5356 170.025 10.2889 169.848 9.92893C169.665 9.55851 169.556 9.23975 169.514 8.96199C169.483 8.68945 169.472 8.27802 169.472 7.72749C169.472 7.1824 169.483 6.77098 169.514 6.49322C169.556 6.22068 169.66 5.91211 169.827 5.56752C170.171 4.92456 171.121 4.60059 172.666 4.60059C174.194 4.60059 175.118 4.92456 175.442 5.56752C175.635 5.92752 175.744 6.24627 175.776 6.53446C175.817 6.81222 175.838 7.22364 175.838 7.76872C175.838 8.31902 175.817 8.73045 175.776 9.00299C175.744 9.28075 175.64 9.59453 175.462 9.94931Z" fill="black"/>
<path d="M191.786 13.6525C192.256 13.7914 192.642 14.0383 192.934 14.3931C193.237 14.7377 193.393 15.2932 193.393 16.0597C193.393 16.8311 193.163 17.6644 192.704 18.5694C192.245 19.4745 191.577 19.9272 190.701 19.9272C190.267 19.9272 189.85 19.8348 189.448 19.6392C189.041 19.4489 188.514 19.3513 187.862 19.3513C187.204 19.3513 186.594 19.5878 186.025 20.0507C185.451 20.5033 185.169 21.0536 185.169 21.6963V29.2259C185.169 29.7762 185.149 30.1876 185.107 30.4604C185.075 30.7381 184.966 31.0569 184.773 31.4271C184.407 32.0445 183.463 32.353 181.934 32.353C180.765 32.353 179.92 32.1473 179.409 31.7359C179.017 31.4067 178.803 30.8924 178.762 30.1928V16.5533C178.762 16.0082 178.772 15.5968 178.803 15.3191C178.845 15.0465 178.95 14.7429 179.116 14.4137C179.461 13.7556 180.41 13.4264 181.955 13.4264C183.416 13.4264 184.324 13.7092 184.689 14.2699C184.95 14.6401 185.086 15.0309 185.086 15.4425C185.211 15.2778 185.383 15.0823 185.608 14.8458C185.842 14.5991 186.338 14.2801 187.09 13.8789C187.841 13.4674 188.498 13.2617 189.072 13.2617C189.657 13.2617 190.137 13.2925 190.513 13.344C190.899 13.4006 191.327 13.5035 191.786 13.6525Z" fill="black"/>
<path d="M213.903 20.6469C213.903 22.118 213.532 23.2084 212.797 23.9179C212.055 24.6175 211.236 24.9673 210.334 24.9673H201.713C201.713 25.6255 202.11 26.1912 202.903 26.6543C203.707 27.1067 204.51 27.333 205.303 27.333C206.723 27.333 207.829 27.1892 208.622 26.901L209.019 26.7571C209.603 26.5 210.088 26.3661 210.48 26.3661C211.257 26.3661 211.925 26.901 212.483 27.9708C212.802 28.6189 212.963 29.164 212.963 29.6167C212.963 31.756 210.375 32.8258 205.199 32.8258C203.404 32.8258 201.802 32.5225 200.398 31.9208C199.005 31.3036 197.925 30.491 197.163 29.4726C195.629 27.5387 194.867 25.3788 194.867 22.9922C194.867 19.9784 195.853 17.5613 197.831 15.7509C199.803 13.9405 202.277 13.0352 205.241 13.0352C208.622 13.0352 211.095 14.2078 212.671 16.5531C213.49 17.803 213.903 19.1657 213.903 20.6469ZM206.222 21.6961C207.14 21.6961 207.599 21.3157 207.599 20.5441C207.599 19.999 207.38 19.5568 206.952 19.2276C206.535 18.8882 205.93 18.7133 205.136 18.7133C204.354 18.7133 203.576 19.0321 202.799 19.6596C202.016 20.2922 201.63 20.9711 201.63 21.6961H206.222Z" fill="black"/>
<path d="M84.7546 23.1439L97.0954 11.7314L113.324 27.6288L102.141 38.4703C99.9339 40.6151 96.3178 40.5791 94.0689 38.3933L85.266 30.7711C83.0118 28.5853 82.9753 25.083 84.7546 23.1439Z" fill="#1C7CFF"/>
<path d="M96.3335 16.4268C97.4607 17.5172 99.287 17.5172 100.414 16.4268L109.53 7.58599C110.652 6.49558 110.652 4.72642 109.53 3.6308C108.403 2.54039 106.577 2.54039 105.45 3.6308L96.3335 12.4719C95.2065 13.5623 95.2065 15.3367 96.3335 16.4268Z" fill="#1C7CFF"/>
<path d="M98.9323 21.7966C100.059 22.887 101.886 22.887 103.013 21.7966L107.088 17.8416C108.215 16.7462 108.215 14.9768 107.088 13.8867C105.961 12.7962 104.14 12.7962 103.013 13.8867L98.9323 17.8416C97.8051 18.932 97.8051 20.7012 98.9323 21.7966Z" fill="#1C7CFF"/>
<path d="M102.314 26.4151C103.436 27.5107 105.262 27.5107 106.389 26.4151L110.47 22.4601C111.591 21.3697 111.591 19.6005 110.47 18.5101C109.342 17.4147 107.516 17.4147 106.389 18.5101L102.314 22.4653C101.187 23.5555 101.187 25.3249 102.314 26.4151ZM105.199 31.5531C106.326 32.6435 108.147 32.6435 109.275 31.5531L113.355 27.5982C114.482 26.5077 114.482 24.7386 113.355 23.643C112.228 22.5528 110.402 22.5528 109.275 23.643L105.199 27.5982C104.072 28.6935 104.072 30.4627 105.199 31.5531ZM83.492 18.9526C83.4191 17.6617 82.9808 16.3604 82.2866 15.2496L80.7734 12.822C80.476 12.3488 80.5491 11.747 80.9403 11.3664L81.3996 10.9242C82.6102 9.74633 84.7757 10.2864 85.6574 11.1351L86.6019 12.0556C88.5222 13.9174 90.1086 16.0466 90.8548 18.5668L92.7384 23.2367L83.4972 26.7236L83.492 18.9526Z" fill="#1C7CFF"/>
<path d="M103.128 13.7886L100.414 16.427C100.038 16.787 100.038 17.3786 100.414 17.7438C100.79 18.109 101.395 18.109 101.771 17.7438L103.128 13.7886ZM106.53 18.4021L103.811 21.0404C103.435 21.4004 103.435 21.9919 103.811 22.3571C104.187 22.7223 104.792 22.7223 105.168 22.3571L106.53 18.4021ZM109.275 23.6378L106.556 26.2711C106.185 26.636 106.18 27.2276 106.556 27.5928C106.932 27.9528 107.542 27.9528 107.918 27.5928L109.275 23.6378Z" fill="#3763FF"/>
<path d="M92.1223 7.4575C91.5902 7.4575 91.1622 7.03565 91.1622 6.52137V0.930913C91.1622 0.416636 91.5902 0 92.1223 0C92.6547 0 93.0825 0.416636 93.0825 0.930913V6.52137C93.0825 7.03565 92.6547 7.4575 92.1223 7.4575ZM96.9282 8.38841C96.683 8.38841 96.4377 8.29575 96.2499 8.11587C95.8743 7.75066 95.8743 7.15912 96.2499 6.79913L100.096 3.0705C100.471 2.70529 101.077 2.70529 101.453 3.0705C101.828 3.43571 101.828 4.02179 101.453 4.387L97.6068 8.11587C97.4187 8.29575 97.1735 8.38841 96.9282 8.38841ZM87.3165 8.38841C87.0712 8.38841 86.8262 8.29575 86.6382 8.11587L82.7924 4.387C82.4168 4.02179 82.4168 3.43571 82.7924 3.0705C83.1683 2.70529 83.7788 2.70529 84.1543 3.0705L87.995 6.79913C88.3706 7.15912 88.3706 7.75066 87.995 8.11587C87.8123 8.29575 87.5617 8.38841 87.3165 8.38841Z" fill="#FFBA00"/>
<path d="M101.426 29.659C101.994 29.659 102.396 29.7208 102.636 29.8441C102.871 29.9676 103.033 30.1631 103.116 30.4202C103.2 30.6826 103.242 31.0272 103.242 31.4488C103.242 31.8756 103.189 32.2202 103.095 32.4776C103.012 32.7243 102.866 32.8992 102.657 32.9918C102.365 33.1563 101.937 33.2386 101.384 33.2386H93.4106C92.9097 33.2386 92.4767 33.0639 92.1165 32.7037C91.7669 32.3335 91.5947 31.9116 91.5947 31.4282C91.5947 30.7032 91.8503 30.0396 92.3671 29.4327C92.8785 28.8155 93.4993 28.2911 94.2248 27.8486C94.9447 27.4116 95.6648 26.9845 96.3744 26.5731C97.0945 26.1515 97.7156 25.668 98.2321 25.1331C98.7435 24.588 99.0044 24.0119 99.0044 23.405C99.0044 23.2815 98.9522 23.1118 98.8582 22.8907C98.7592 22.6748 98.6548 22.4947 98.5452 22.3558C98.4305 22.2221 98.253 22.0884 98.0025 21.965C97.7522 21.8415 97.4076 21.7799 96.9798 21.7799C96.5468 21.7799 96.171 21.9391 95.8526 22.2529C95.5292 22.5719 95.3517 22.8805 95.3099 23.1786L95.2265 23.6519V23.7754C95.2265 24.0633 95.2108 24.2844 95.1849 24.4337C95.169 24.588 95.1065 24.7577 94.9968 24.948C94.7881 25.2668 94.256 25.4211 93.4106 25.4211C92.4505 25.4211 91.8765 25.1691 91.6991 24.6598C91.626 24.4439 91.5947 24.0993 91.5947 23.6313C91.5947 22.2323 92.1009 20.9878 93.1185 19.8872C94.1307 18.7762 95.4614 18.2207 97.1051 18.2207C98.7435 18.2207 100.074 18.7864 101.092 19.9076C102.12 21.0187 102.636 22.2942 102.636 23.7341C102.636 24.5056 102.459 25.2308 102.114 25.915C101.78 26.6041 101.373 27.1492 100.904 27.5606C99.8864 28.4401 98.9888 29.0366 98.2112 29.3504L97.6894 29.5561V29.659H101.426Z" fill="white"/>
</g>
<defs>
<clipPath id="clip0_143_919">
<rect width="214" height="41" fill="white"/>
</clipPath>
</defs>
</svg>
