<svg width="18" height="18" viewBox="0 0 18 18" fill="none" xmlns="http://www.w3.org/2000/svg">
<g clip-path="url(#clip0_96_38665)">
<path d="M16.5402 12.0616V14.1954C16.541 14.3935 16.5004 14.5896 16.4211 14.7711C16.3417 14.9526 16.2253 15.1155 16.0793 15.2495C15.9334 15.3834 15.761 15.4853 15.5734 15.5488C15.3857 15.6123 15.1869 15.6358 14.9896 15.618C12.8008 15.3802 10.6984 14.6323 8.85119 13.4343C7.1326 12.3423 5.67553 10.8852 4.58347 9.16663C3.38138 7.31103 2.63329 5.19835 2.39982 2.99977C2.38204 2.80308 2.40542 2.60484 2.46846 2.41767C2.53149 2.23051 2.63281 2.05852 2.76596 1.91266C2.89911 1.76679 3.06117 1.65025 3.24183 1.57046C3.42249 1.49066 3.61778 1.44935 3.81528 1.44917H5.94914C6.29433 1.44577 6.62898 1.56801 6.89071 1.7931C7.15244 2.01819 7.3234 2.33077 7.37171 2.67258C7.46178 3.35546 7.62881 4.02596 7.86961 4.67129C7.96531 4.92588 7.98602 5.20256 7.92929 5.46856C7.87256 5.73456 7.74077 5.97872 7.54953 6.17211L6.6462 7.07544C7.65876 8.85618 9.13318 10.3306 10.9139 11.3432L11.8173 10.4398C12.0106 10.2486 12.2548 10.1168 12.5208 10.0601C12.7868 10.0033 13.0635 10.0241 13.3181 10.1198C13.9634 10.3606 14.6339 10.5276 15.3168 10.6177C15.6623 10.6664 15.9779 10.8404 16.2034 11.1067C16.429 11.3729 16.5489 11.7127 16.5402 12.0616Z" stroke="black" stroke-width="2.00834" stroke-linecap="round" stroke-linejoin="round"/>
</g>
<defs>
<clipPath id="clip0_96_38665">
<rect width="17.0709" height="17.0709" fill="white" transform="translate(0.890137 0.0250244)"/>
</clipPath>
</defs>
</svg>
