<svg width="34" height="19" viewBox="0 0 34 19" fill="none" xmlns="http://www.w3.org/2000/svg">
<path d="M19.2105 13.8202C18.2913 14.1489 17.2913 13.6846 16.9736 12.7962L13.5201 3.13895C13.2024 2.25055 13.6844 1.26644 14.6036 0.937727C15.5232 0.608867 16.5195 1.06434 16.8372 1.95274L20.2907 11.61C20.6084 12.4984 20.1301 13.4914 19.2105 13.8202ZM28.0874 12.4595C27.6638 12.611 27.1828 12.6025 26.7473 12.4078C25.8729 12.0089 25.5075 10.987 25.9339 10.1331L30.2739 1.31641C30.6976 0.453368 31.743 0.0795055 32.6178 0.478224C33.4922 0.877092 33.8543 1.88953 33.4311 2.75243L29.0912 11.5696C28.8775 11.9965 28.5111 12.308 28.0874 12.4595ZM11.4836 18.3971C11.0599 18.5486 10.5794 18.5399 10.1435 18.3453L1.19665 14.2796C0.32224 13.8807 -0.039812 12.8683 0.383384 12.0054C0.806996 11.1423 1.86161 10.7652 2.73602 11.1641L11.674 15.2325C12.5452 15.6224 12.9106 16.6443 12.4874 17.5072C12.2828 17.9308 11.9073 18.2456 11.4836 18.3971Z" fill="#FFBA00"/>
</svg>
