<svg width="46" height="46" viewBox="0 0 46 46" fill="none" xmlns="http://www.w3.org/2000/svg">
<path d="M31.6281 14.8584C32.8323 16.0626 32.8462 17.9858 31.6824 19.1496L19.0311 31.8009C17.8673 32.9648 15.9559 32.939 14.7517 31.7348C13.547 30.5301 13.5218 28.6192 14.6856 27.4554L27.3369 14.8041C28.5007 13.6403 30.4234 13.6537 31.6281 14.8584ZM22.8591 1.87597C23.4141 2.43099 23.7594 3.19573 23.7773 4.02777C23.8008 5.70419 22.4621 7.04285 20.7975 7.00758L3.65655 6.74253C1.97958 6.71851 0.609994 5.34892 0.585971 3.67195C0.562496 1.99553 1.88882 0.669206 3.56524 0.692681L20.7067 0.957177C21.5393 0.975628 22.304 1.32095 22.8591 1.87597ZM44.6106 23.6275C45.1656 24.1825 45.5104 24.9467 45.5288 25.7793L45.7933 42.9208C45.8168 44.5972 44.4905 45.9235 42.8141 45.9C41.1371 45.876 39.7555 44.4944 39.732 42.818L39.4784 25.6885C39.4432 24.0239 40.7818 22.6852 42.4582 22.7087C43.2789 22.7152 44.0555 23.0725 44.6106 23.6275Z" fill="#FFBA00"/>
</svg>
