<svg width="30" height="25" viewBox="0 0 30 25" fill="none" xmlns="http://www.w3.org/2000/svg">
<path d="M11.2259 17.4632C10.4389 16.8856 10.2639 15.797 10.8221 15.0365L16.8909 6.7685C17.4492 6.00791 18.5345 5.85636 19.3214 6.434C20.1088 7.0119 20.2891 8.09244 19.7308 8.85303L13.662 17.121C13.1038 17.8816 12.0132 18.0411 11.2259 17.4632ZM17.3229 24.057C16.9602 23.7908 16.698 23.3875 16.6156 22.9176C16.4566 21.9698 17.0987 21.0949 18.045 20.9702L27.7803 19.6306C28.7326 19.4985 29.6276 20.1554 29.787 21.1036C29.946 22.0514 29.3098 22.9182 28.3578 23.0506L18.6223 24.3906C18.1489 24.4525 17.6856 24.3233 17.3229 24.057ZM3.10771 13.6229C2.74499 13.3567 2.48321 12.9536 2.40039 12.4835L0.76068 2.7939C0.601672 1.84606 1.23791 0.979277 2.18983 0.846873C3.1421 0.714731 4.045 1.37747 4.204 2.32531L5.83651 12.009C6.00118 12.9492 5.35902 13.824 4.4071 13.9564C3.94157 14.0241 3.47043 13.8891 3.10771 13.6229Z" fill="#FFBA00"/>
</svg>
