<svg width="30" height="25" viewBox="0 0 30 25" fill="none" xmlns="http://www.w3.org/2000/svg">
<path d="M19.3182 17.5913C18.544 18.1859 17.4499 18.0503 16.8752 17.302L10.6284 9.16774C10.0537 8.41945 10.2109 7.33498 10.9852 6.74039C11.7598 6.14553 12.8477 6.27377 13.4224 7.02206L19.6692 15.1563C20.2439 15.9046 20.0928 16.9964 19.3182 17.5913ZM27.3511 13.5757C26.9943 13.8497 26.5339 13.989 26.0596 13.9371C25.1051 13.8254 24.4441 12.9646 24.5883 12.0212L26.0176 2.29863C26.1563 1.34729 27.0369 0.67103 27.9918 0.782472C28.9464 0.894183 29.6013 1.74696 29.4629 2.69802L28.0339 12.4209C27.9613 12.8927 27.708 13.3016 27.3511 13.5757ZM13.3658 24.3159C13.0089 24.5899 12.5489 24.7289 12.0743 24.6773L2.31193 23.5489C1.35736 23.4372 0.702462 22.5844 0.840859 21.6334C0.979606 20.682 1.8679 19.9999 2.82247 20.1116L12.5772 21.2452C13.5259 21.3493 14.1869 22.21 14.0485 23.1611C13.9836 23.627 13.7226 24.0418 13.3658 24.3159Z" fill="#FFBA00"/>
</svg>
