<svg width="188" height="310" viewBox="0 0 188 310" fill="none" xmlns="http://www.w3.org/2000/svg">
<path d="M85.6434 309.688C84.5454 309.984 83.3803 309.415 82.9516 308.334C82.4966 307.174 83.0677 305.863 84.2291 305.408L84.544 305.282C85.7148 304.825 87.0185 305.402 87.4688 306.563C87.9239 307.723 87.3481 309.035 86.1855 309.486L85.874 309.605C85.7964 309.636 85.7176 309.663 85.6374 309.684L85.6434 309.688ZM101.222 302.63C100.218 302.901 99.1248 302.449 98.6273 301.487C98.0548 300.379 98.4865 299.02 99.5946 298.442L99.8831 298.294C100.981 297.714 102.355 298.141 102.931 299.243C103.513 300.349 103.082 301.713 101.979 302.289L101.673 302.447C101.526 302.522 101.376 302.583 101.22 302.625L101.222 302.63ZM115.948 293.917C115.039 294.163 114.035 293.818 113.484 292.992C112.789 291.958 113.067 290.554 114.104 289.86L114.382 289.673C115.423 288.978 116.823 289.256 117.517 290.291C118.211 291.326 117.933 292.729 116.897 293.424L116.619 293.61C116.409 293.752 116.184 293.854 115.953 293.916L115.948 293.917ZM129.635 283.658C128.815 283.879 127.902 283.626 127.316 282.936C126.512 281.981 126.633 280.559 127.589 279.755L127.853 279.533C128.81 278.734 130.234 278.859 131.034 279.815C131.833 280.771 131.707 282.194 130.75 282.993L130.503 283.201C130.239 283.424 129.946 283.574 129.635 283.658ZM142.141 271.949C141.401 272.149 140.576 271.978 139.983 271.411C139.083 270.548 139.035 269.137 139.894 268.238L140.12 268.005C140.978 267.101 142.409 267.063 143.313 267.92C144.217 268.777 144.254 270.206 143.396 271.11L143.19 271.322C142.891 271.636 142.523 271.846 142.136 271.951L142.141 271.949ZM153.275 259.016C152.62 259.193 151.895 259.075 151.315 258.631C150.322 257.874 150.132 256.46 150.89 255.468L151.091 255.201C151.845 254.21 153.264 254.018 154.258 254.775C155.251 255.532 155.441 256.945 154.683 257.938L154.482 258.205C154.168 258.617 153.741 258.889 153.275 259.016ZM162.973 244.869C162.398 245.024 161.77 244.961 161.231 244.632C160.166 243.986 159.799 242.645 160.445 241.576L160.618 241.298C161.26 240.23 162.648 239.885 163.717 240.531C164.787 241.176 165.131 242.563 164.483 243.627L164.362 243.832C164.039 244.358 163.534 244.717 162.973 244.869ZM171.089 229.881C170.595 230.015 170.055 229.984 169.552 229.751C168.42 229.229 167.931 227.886 168.454 226.754L168.606 226.436C169.137 225.312 170.482 224.828 171.612 225.361C172.742 225.894 173.222 227.239 172.687 228.364L172.552 228.652C172.257 229.283 171.711 229.713 171.089 229.881ZM177.546 214.049C177.127 214.163 176.67 214.155 176.23 214.006C175.049 213.603 174.419 212.318 174.823 211.138L174.933 210.816C175.343 209.639 176.63 209.013 177.807 209.418C178.989 209.826 179.613 211.107 179.204 212.288L179.096 212.6C178.845 213.335 178.248 213.86 177.546 214.049ZM182.257 197.613C181.913 197.706 181.548 197.719 181.177 197.637C179.96 197.365 179.194 196.158 179.463 194.944L179.541 194.599C179.819 193.383 181.031 192.626 182.249 192.903C183.466 193.18 184.224 194.395 183.945 195.606L183.873 195.919C183.682 196.768 183.038 197.397 182.256 197.608L182.257 197.613ZM185.157 180.762C184.893 180.834 184.612 180.859 184.325 180.826C183.085 180.691 182.188 179.58 182.323 178.341L182.363 177.982C182.509 176.745 183.635 175.86 184.873 176.005C186.111 176.151 186.996 177.275 186.85 178.512L186.813 178.825C186.711 179.777 186.029 180.527 185.157 180.762ZM186.203 163.695C186.01 163.747 185.811 163.776 185.597 163.773C184.352 163.766 183.344 162.75 183.35 161.501L183.351 161.168C183.359 159.923 184.376 158.916 185.622 158.923C186.867 158.929 187.875 159.945 187.868 161.19L187.868 161.528C187.86 162.566 187.154 163.433 186.198 163.692L186.203 163.695ZM185.388 146.626C185.275 146.656 185.155 146.679 185.037 146.691C183.798 146.823 182.686 145.927 182.553 144.685L182.518 144.351C182.385 143.109 183.288 141.996 184.528 141.868C185.766 141.735 186.879 142.637 187.011 143.874L187.046 144.208C187.166 145.327 186.444 146.341 185.388 146.626ZM182.724 129.748C182.682 129.76 182.635 129.772 182.592 129.784C181.371 130.038 180.174 129.255 179.919 128.031L179.852 127.726C179.589 126.509 180.321 125.326 181.579 125.042C182.797 124.778 184.001 125.549 184.269 126.765L184.343 127.113C184.59 128.289 183.864 129.44 182.724 129.748ZM178.266 113.249C177.121 113.559 175.919 112.929 175.54 111.788L175.433 111.469C175.038 110.287 175.674 109.01 176.861 108.613C178.034 108.22 179.323 108.852 179.719 110.038L179.826 110.358C180.221 111.539 179.585 112.817 178.399 113.218C178.357 113.23 178.309 113.242 178.267 113.254L178.266 113.249ZM172.072 97.3252C171.026 97.6078 169.903 97.103 169.433 96.0935L169.285 95.7699C168.776 94.6346 169.284 93.2952 170.42 92.786C171.556 92.2721 172.896 92.7787 173.406 93.9187L173.534 94.2026C174.057 95.3341 173.56 96.6756 172.427 97.1989C172.311 97.2555 172.191 97.298 172.068 97.3311L172.072 97.3252ZM164.188 82.1659C163.241 82.4218 162.195 82.0326 161.664 81.1509L161.48 80.8469C160.847 79.7755 161.201 78.3917 162.273 77.7537C163.35 77.119 164.73 77.4735 165.37 78.5483L165.53 78.8232C166.173 79.892 165.829 81.278 164.759 81.9207C164.576 82.0307 164.381 82.1137 164.183 82.1672L164.188 82.1659ZM154.694 67.9519C153.832 68.1849 152.878 67.8922 152.304 67.1331L152.106 66.8684C151.352 65.875 151.546 64.4589 152.536 63.7064C153.529 62.948 154.948 63.1456 155.701 64.1389L155.905 64.4071C156.659 65.4005 156.461 66.8179 155.466 67.5716C155.227 67.7524 154.963 67.8793 154.694 67.9519ZM143.72 54.8653C142.942 55.0754 142.075 54.8602 141.487 54.2363L141.26 53.9946C140.403 53.0895 140.442 51.6598 141.348 50.8037C142.254 49.9477 143.685 49.9852 144.542 50.8903L144.775 51.1354C145.631 52.0405 145.588 53.4715 144.682 54.3276C144.399 54.5909 144.068 54.7711 143.724 54.8641L143.72 54.8653ZM131.382 43.041C130.685 43.2295 129.907 43.0812 129.315 42.5744L129.064 42.3592C128.117 41.5493 128.005 40.1249 128.817 39.1783C129.632 38.2305 131.054 38.1193 132.001 38.9291L132.263 39.1512C133.211 39.9658 133.312 41.3881 132.501 42.3346C132.193 42.6907 131.802 42.9277 131.382 43.041ZM117.84 32.6132C117.218 32.7813 116.529 32.6845 115.957 32.2886L115.703 32.1149C114.674 31.413 114.406 30.0105 115.108 28.9773C115.811 27.9489 117.215 27.6806 118.249 28.3812L118.546 28.5837C119.568 29.2975 119.822 30.7038 119.107 31.7254C118.79 32.1798 118.339 32.4783 117.844 32.612L117.84 32.6132ZM103.25 23.7008C102.708 23.8472 102.107 23.7925 101.578 23.501L101.301 23.3538C100.202 22.7668 99.7866 21.3991 100.37 20.3019C100.958 19.2035 102.327 18.7881 103.425 19.3703L103.74 19.5429C104.837 20.1405 105.238 21.5121 104.638 22.6036C104.33 23.1667 103.819 23.542 103.244 23.6974L103.25 23.7008ZM87.7782 16.4057C87.3211 16.5293 86.8151 16.5094 86.3438 16.3185L86.0313 16.1909C84.8728 15.721 84.3201 14.4055 84.7876 13.2539C85.2598 12.1009 86.5755 11.5434 87.728 12.0098L88.0407 12.1374C89.1992 12.6073 89.7518 13.9228 89.2843 15.0744C89.0081 15.7552 88.4379 16.2275 87.7782 16.4057ZM71.6098 10.8192C71.2281 10.9224 70.809 10.9245 70.3983 10.8082L70.0745 10.7138C68.8746 10.3713 68.1821 9.1189 68.5269 7.92463C68.8704 6.72565 70.1196 6.0345 71.3196 6.37699L71.6434 6.47132C72.8434 6.81381 73.5357 8.06626 73.191 9.26053C72.9642 10.0492 72.3449 10.6206 71.6051 10.8205L71.6098 10.8192ZM54.9311 7.01214C54.6201 7.09618 54.2913 7.11432 53.9515 7.05459L53.6285 7.00046C52.3991 6.79221 51.5733 5.62631 51.7825 4.39797C51.9916 3.16963 53.159 2.34402 54.3884 2.55228L54.7329 2.61072C55.9588 2.82496 56.7812 3.99683 56.566 5.22173C56.4074 6.11316 55.7511 6.79057 54.9311 7.01214ZM37.9326 5.03406C37.7017 5.09646 37.456 5.12247 37.2034 5.10484L36.8738 5.08278C35.6304 5.00964 34.6785 3.93845 34.7524 2.69615C34.8263 1.45384 35.8943 0.503557 37.1425 0.575417L37.4862 0.593656C38.7309 0.671496 39.6781 1.74397 39.5995 2.98755C39.5386 3.97882 38.8456 4.78232 37.9361 5.02808L37.9326 5.03406ZM20.8209 4.9201C20.6654 4.96212 20.5001 4.98659 20.331 4.99694L20.0069 5.0138C18.7601 5.07795 17.7014 4.11645 17.6378 2.87086C17.5743 1.62528 18.5339 0.572981 19.7841 0.502849L20.1283 0.4856C21.3764 0.426157 22.4317 1.39364 22.4845 2.63706C22.5331 3.71495 21.8187 4.64545 20.8197 4.9154L20.8209 4.9201ZM3.80673 6.66382C3.72662 6.68546 3.65122 6.70584 3.56258 6.71464L3.24264 6.76573C2.01261 6.96678 0.850804 6.1291 0.654955 4.89907C0.454393 3.67031 1.27941 2.51295 2.52484 2.31279L2.86958 2.26003C4.10215 2.0684 5.25924 2.90736 5.45038 4.13867C5.62932 5.2874 4.91071 6.37056 3.80801 6.66853L3.80673 6.66382Z" fill="#FFBA00"/>
</svg>
