<svg width="30" height="25" viewBox="0 0 30 25" fill="none" xmlns="http://www.w3.org/2000/svg">
<path d="M11.2118 17.4723C10.4257 16.8935 10.2523 15.8047 10.8117 15.045L16.8929 6.7861C17.4523 6.02635 18.5378 5.87642 19.3239 6.45524C20.1104 7.03432 20.2891 8.11512 19.7297 8.87487L13.6485 17.1337C13.0891 17.8935 11.9983 18.0514 11.2118 17.4723ZM17.299 24.0753C16.9367 23.8085 16.6751 23.4048 16.5934 22.9348C16.4358 21.9867 17.0792 21.1128 18.0257 20.9895L27.763 19.6645C28.7155 19.5338 29.6095 20.1921 29.7675 21.1404C29.9251 22.0885 29.2875 22.9543 28.3354 23.0853L18.5979 24.4107C18.1244 24.4719 17.6613 24.342 17.299 24.0753ZM3.09943 13.6199C2.73711 13.3531 2.47593 12.9497 2.39382 12.4794L0.768594 2.7874C0.611004 1.83932 1.24853 0.973488 2.20065 0.842508C3.15312 0.711789 4.05503 1.37588 4.21262 2.32395L5.83064 12.0101C5.9939 12.9505 5.35044 13.8244 4.39833 13.9554C3.93269 14.0223 3.46176 13.8867 3.09943 13.6199Z" fill="#FFBA00"/>
</svg>
