<svg width="70" height="51" viewBox="0 0 70 51" fill="none" xmlns="http://www.w3.org/2000/svg">
<path d="M1.91115 38.8779C2.91929 42.1074 4.37111 46.426 5.89632 49.402M5.89632 49.402C6.07193 49.7449 8.1413 47.7249 8.22883 47.6238C10.1509 45.4061 11.7239 43.005 13.2744 40.5235M5.89632 49.402C4.40303 31.0778 14.6855 15.5928 27.479 12.7421C28.7469 12.4596 30.1273 12.1534 31.529 11.9714M31.529 11.9714C33.7612 11.6815 36.0473 11.7066 38.0195 12.6436C39.8395 13.5085 41.8462 15.4018 41.9943 17.5048C42.2708 21.4335 37.488 23.5333 34.3079 21.4608C31.5134 19.6396 30.0766 14.9346 31.529 11.9714ZM31.529 11.9714C31.5596 11.9089 31.5915 11.8472 31.6247 11.7863C39.6432 -2.91519 58.9845 0.76902 67.7186 11.3282" stroke="#FFBA00" stroke-width="3" stroke-miterlimit="1.5" stroke-linecap="round" stroke-linejoin="round"/>
</svg>
