<svg width="28" height="26" viewBox="0 0 28 26" fill="none" xmlns="http://www.w3.org/2000/svg">
<path d="M18.2403 18.0071C17.5217 18.6679 16.4199 18.6299 15.7812 17.9355L8.83811 10.3868C8.1994 9.69234 8.25988 8.59821 8.97839 7.93735C9.69722 7.27618 10.7923 7.30751 11.431 8.00193L18.374 15.5506C19.0128 16.2451 18.9591 17.3459 18.2403 18.0071ZM25.8857 13.2954C25.5545 13.6 25.1083 13.7795 24.6313 13.7698C23.6706 13.7432 22.9359 12.9444 22.996 11.9919L23.558 2.18092C23.6119 1.22103 24.4291 0.46939 25.3902 0.495771C26.3509 0.52245 27.0788 1.31383 27.0252 2.27342L26.4634 12.0847C26.4329 12.5611 26.2168 12.9908 25.8857 13.2954ZM12.9071 25.2327C12.576 25.5373 12.13 25.7165 11.6527 25.7072L1.82881 25.4484C0.868093 25.4217 0.1402 24.6303 0.193771 23.6707C0.247666 22.7108 1.07202 21.9526 2.03273 21.9793L11.8495 22.244C12.8038 22.2637 13.5384 23.0624 13.4849 24.022C13.4615 24.4918 13.2383 24.9281 12.9071 25.2327Z" fill="#FFBA00"/>
</svg>
