<svg width="47" height="46" viewBox="0 0 47 46" fill="none" xmlns="http://www.w3.org/2000/svg">
<path d="M31.761 31.4572C30.5198 32.6232 28.5971 32.5771 27.4702 31.3775L15.22 18.3374C14.0931 17.1378 14.1784 15.2281 15.4196 14.0621C16.6614 12.8956 18.5721 12.9301 19.699 14.1297L31.9492 27.1697C33.0762 28.3693 33.0028 30.2906 31.761 31.4572ZM45.0109 23.0976C44.4388 23.6351 43.6637 23.9564 42.8315 23.9483C41.1551 23.9194 39.8589 22.5396 39.9461 20.8769L40.7461 3.75257C40.8225 2.07717 42.2341 0.750999 43.9111 0.779336C45.5874 0.808205 46.8717 2.17529 46.7959 3.85016L45.9964 20.975C45.952 21.8066 45.583 22.5602 45.0109 23.0976ZM22.591 44.1595C22.0189 44.697 21.2443 45.0177 20.4115 45.0102L3.27016 44.7395C1.59382 44.7106 0.30955 43.3435 0.385346 41.6686C0.461703 39.9932 1.88573 38.6555 3.56207 38.6843L20.6912 38.9656C22.3561 38.9823 23.6523 40.3621 23.5765 42.0369C23.5444 42.857 23.163 43.6221 22.591 44.1595Z" fill="#FFBA00"/>
</svg>
